<svg xmlns="http://www.w3.org/2000/svg" width="100" height="100" viewBox="0 0 24 24" fill="none" stroke="white" stroke-width="2" stroke-linecap="round" stroke-linejoin="round">
  <circle cx="12" cy="12" r="3"></circle>
  <path d="M19.4 15a1.65 1.65 0 0 0 .33 1.82l.06.06a1.65 1.65 0 0 1-2.33 2.33l-.06-.06a1.65 1.65 0 0 0-1.82-.33 1.65 1.65 0 0 0-1 1.51v.1a1.65 1.65 0 0 1-1.65 1.65h-1.1a1.65 1.65 0 0 1-1.65-1.65v-.1a1.65 1.65 0 0 0-1-1.51 1.65 1.65 0 0 0-1.82.33l-.06.06a1.65 1.65 0 0 1-2.33-2.33l.06-.06a1.65 1.65 0 0 0 .33-1.82 1.65 1.65 0 0 0-1.51-1H2.65A1.65 1.65 0 0 1 1 12.35v-1.1A1.65 1.65 0 0 1 2.65 9.6h.1a1.65 1.65 0 0 0 1.51-1 1.65 1.65 0 0 0-.33-1.82l-.06-.06a1.65 1.65 0 0 1 2.33-2.33l.06.06a1.65 1.65 0 0 0 1.82.33h.1a1.65 1.65 0 0 0 1-1.51V2.65A1.65 1.65 0 0 1 11.65 1h1.1A1.65 1.65 0 0 1 14.4 2.65v.1a1.65 1.65 0 0 0 1 1.51 1.65 1.65 0 0 0 1.82-.33l.06-.06a1.65 1.65 0 0 1 2.33 2.33l-.06.06a1.65 1.65 0 0 0-.33 1.82v.1a1.65 1.65 0 0 0 1.51 1h.1a1.65 1.65 0 0 1 1.65 1.65v1.1a1.65 1.65 0 0 1-1.65 1.65h-.1a1.65 1.65 0 0 0-1.51 1z"></path>
</svg>
